Normalized EMG Linear Envelopes
nRows=59
nColumns=17

endheader
time	        VM	        VL	        RF	       GRA	        TA	   ADDLONG	   SEMIMEM	      BFLH	        GM	        GL	       TFL	   GLUTMAX	   GLUTMED	      PIRI	    OBTINT	        QF	
1.8615	  0.258565	  0.300508	  0.050912	  0.099748	  0.086369	  0.070066	  0.267790	  0.251344	  0.619489	  0.512843	  0.104081	  0.093969	  0.323614	  1.033616	  4.293187	  0.490656	
1.862	  0.254202	  0.296445	  0.050330	  0.100238	  0.085244	  0.070551	  0.268904	  0.249000	  0.615283	  0.510653	  0.103324	  0.091632	  0.321765	  1.032424	  4.320089	  0.487626	
1.8625	  0.249857	  0.292368	  0.049747	  0.100754	  0.084122	  0.071054	  0.270012	  0.246653	  0.611021	  0.508406	  0.102558	  0.089327	  0.319889	  1.031108	  4.346066	  0.484665	
1.863	  0.245531	  0.288280	  0.049164	  0.101296	  0.083004	  0.071574	  0.271110	  0.244303	  0.606704	  0.506104	  0.101784	  0.087057	  0.317988	  1.029667	  4.371101	  0.481772	
1.8635	  0.241225	  0.284181	  0.048582	  0.101864	  0.081890	  0.072112	  0.272199	  0.241949	  0.602335	  0.503749	  0.101002	  0.084820	  0.316063	  1.028099	  4.395175	  0.478945	
1.864	  0.236940	  0.280074	  0.048000	  0.102459	  0.080780	  0.072667	  0.273277	  0.239593	  0.597916	  0.501342	  0.100212	  0.082617	  0.314118	  1.026403	  4.418269	  0.476186	
1.8645	  0.232679	  0.275961	  0.047420	  0.103079	  0.079675	  0.073239	  0.274341	  0.237234	  0.593449	  0.498883	  0.099415	  0.080447	  0.312154	  1.024579	  4.440367	  0.473493	
1.865	  0.228442	  0.271842	  0.046840	  0.103724	  0.078576	  0.073828	  0.275391	  0.234874	  0.588936	  0.496374	  0.098610	  0.078310	  0.310173	  1.022625	  4.461451	  0.470866	
1.8655	  0.224229	  0.267721	  0.046262	  0.104396	  0.077481	  0.074434	  0.276425	  0.232512	  0.584378	  0.493815	  0.097798	  0.076207	  0.308177	  1.020542	  4.481503	  0.468305	
1.866	  0.220043	  0.263598	  0.045686	  0.105092	  0.076393	  0.075057	  0.277441	  0.230149	  0.579779	  0.491206	  0.096979	  0.074138	  0.306169	  1.018327	  4.500508	  0.465809	
1.8665	  0.215885	  0.259476	  0.045111	  0.105813	  0.075311	  0.075697	  0.278437	  0.227787	  0.575139	  0.488550	  0.096153	  0.072101	  0.304149	  1.015982	  4.518447	  0.463379	
1.867	  0.211754	  0.255355	  0.044539	  0.106559	  0.074235	  0.076354	  0.279411	  0.225425	  0.570460	  0.485845	  0.095321	  0.070098	  0.302119	  1.013504	  4.535304	  0.461014	
1.8675	  0.207653	  0.251238	  0.043970	  0.107330	  0.073167	  0.077028	  0.280363	  0.223063	  0.565745	  0.483094	  0.094482	  0.068128	  0.300082	  1.010892	  4.551061	  0.458714	
1.868	  0.203583	  0.247125	  0.043403	  0.108125	  0.072106	  0.077719	  0.281288	  0.220703	  0.560994	  0.480296	  0.093638	  0.066190	  0.298040	  1.008145	  4.565701	  0.456479	
1.8685	  0.199543	  0.243020	  0.042840	  0.108944	  0.071053	  0.078427	  0.282187	  0.218345	  0.556210	  0.477454	  0.092788	  0.064286	  0.295993	  1.005264	  4.579206	  0.454308	
1.869	  0.195535	  0.238923	  0.042280	  0.109787	  0.070008	  0.079151	  0.283056	  0.215988	  0.551393	  0.474567	  0.091933	  0.062414	  0.293944	  1.002248	  4.591560	  0.452202	
1.8695	  0.191560	  0.234835	  0.041723	  0.110653	  0.068972	  0.079892	  0.283893	  0.213635	  0.546545	  0.471638	  0.091072	  0.060575	  0.291893	  0.999100	  4.602746	  0.450160	
1.87	  0.187618	  0.230759	  0.041171	  0.111542	  0.067946	  0.080650	  0.284697	  0.211285	  0.541666	  0.468666	  0.090207	  0.058768	  0.289844	  0.995820	  4.612752	  0.448181	
1.8705	  0.183710	  0.226697	  0.040622	  0.112454	  0.066929	  0.081424	  0.285467	  0.208939	  0.536758	  0.465655	  0.089337	  0.056993	  0.287797	  0.992410	  4.621568	  0.446266	
1.871	  0.179837	  0.222648	  0.040077	  0.113388	  0.065921	  0.082214	  0.286199	  0.206598	  0.531821	  0.462603	  0.088462	  0.055251	  0.285753	  0.988874	  4.629192	  0.444414	
1.8715	  0.176000	  0.218616	  0.039537	  0.114344	  0.064924	  0.083020	  0.286893	  0.204263	  0.526857	  0.459513	  0.087583	  0.053540	  0.283715	  0.985215	  4.635619	  0.442625	
1.872	  0.172199	  0.214602	  0.039002	  0.115320	  0.063938	  0.083843	  0.287547	  0.201934	  0.521866	  0.456386	  0.086700	  0.051862	  0.281684	  0.981435	  4.640850	  0.440901	
1.8725	  0.168436	  0.210606	  0.038471	  0.116318	  0.062962	  0.084681	  0.288158	  0.199612	  0.516850	  0.453223	  0.085813	  0.050215	  0.279663	  0.977538	  4.644882	  0.439240	
1.873	  0.164710	  0.206631	  0.037945	  0.117336	  0.061998	  0.085534	  0.288725	  0.197298	  0.511808	  0.450025	  0.084922	  0.048600	  0.277651	  0.973527	  4.647717	  0.437643	
1.8735	  0.161023	  0.202677	  0.037424	  0.118374	  0.061045	  0.086403	  0.289245	  0.194991	  0.506743	  0.446793	  0.084029	  0.047016	  0.275652	  0.969405	  4.649354	  0.436111	
1.874	  0.157374	  0.198747	  0.036908	  0.119431	  0.060104	  0.087288	  0.289718	  0.192694	  0.501654	  0.443528	  0.083132	  0.045463	  0.273667	  0.965175	  4.649798	  0.434644	
1.8745	  0.153766	  0.194841	  0.036397	  0.120507	  0.059175	  0.088186	  0.290141	  0.190406	  0.496543	  0.440231	  0.082232	  0.043942	  0.271697	  0.960840	  4.649051	  0.433241	
1.875	  0.150198	  0.190960	  0.035892	  0.121602	  0.058259	  0.089100	  0.290512	  0.188127	  0.491409	  0.436902	  0.081330	  0.042451	  0.269744	  0.956402	  4.647119	  0.431904	
1.8755	  0.146671	  0.187106	  0.035392	  0.122715	  0.057355	  0.090027	  0.290831	  0.185858	  0.486255	  0.433544	  0.080426	  0.040991	  0.267809	  0.951866	  4.644010	  0.430630	
1.876	  0.143185	  0.183280	  0.034898	  0.123846	  0.056464	  0.090969	  0.291096	  0.183599	  0.481079	  0.430157	  0.079520	  0.039561	  0.265895	  0.947233	  4.639734	  0.429422	
1.8765	  0.139741	  0.179483	  0.034410	  0.124994	  0.055586	  0.091924	  0.291306	  0.181351	  0.475884	  0.426742	  0.078612	  0.038161	  0.264001	  0.942508	  4.634303	  0.428277	
1.877	  0.136339	  0.175715	  0.033927	  0.126158	  0.054721	  0.092892	  0.291459	  0.179114	  0.470670	  0.423299	  0.077702	  0.036792	  0.262131	  0.937694	  4.627730	  0.427196	
1.8775	  0.132981	  0.171979	  0.033450	  0.127339	  0.053869	  0.093873	  0.291554	  0.176888	  0.465437	  0.419830	  0.076791	  0.035452	  0.260284	  0.932795	  4.620031	  0.426178	
1.878	  0.129665	  0.168274	  0.032979	  0.128534	  0.053031	  0.094867	  0.291590	  0.174672	  0.460187	  0.416335	  0.075879	  0.034141	  0.258463	  0.927814	  4.611222	  0.425223	
1.8785	  0.126393	  0.164602	  0.032515	  0.129745	  0.052207	  0.095873	  0.291565	  0.172469	  0.454920	  0.412816	  0.074965	  0.032860	  0.256668	  0.922756	  4.601319	  0.424330	
1.879	  0.123165	  0.160964	  0.032056	  0.130969	  0.051397	  0.096891	  0.291478	  0.170276	  0.449638	  0.409274	  0.074051	  0.031607	  0.254901	  0.917623	  4.590336	  0.423498	
1.8795	  0.119980	  0.157359	  0.031603	  0.132207	  0.050602	  0.097920	  0.291329	  0.168095	  0.444342	  0.405710	  0.073136	  0.030384	  0.253162	  0.912418	  4.578288	  0.422726	
1.88	  0.116840	  0.153790	  0.031157	  0.133457	  0.049820	  0.098961	  0.291116	  0.165926	  0.439033	  0.402124	  0.072221	  0.029188	  0.251453	  0.907146	  4.565190	  0.422012	
1.8805	  0.113745	  0.150256	  0.030717	  0.134718	  0.049054	  0.100012	  0.290838	  0.163769	  0.433712	  0.398518	  0.071306	  0.028021	  0.249773	  0.901809	  4.551058	  0.421357	
1.881	  0.110694	  0.146759	  0.030283	  0.135991	  0.048302	  0.101074	  0.290494	  0.161623	  0.428380	  0.394892	  0.070390	  0.026882	  0.248125	  0.896410	  4.535910	  0.420758	
1.8815	  0.107688	  0.143298	  0.029856	  0.137274	  0.047565	  0.102145	  0.290084	  0.159489	  0.423039	  0.391248	  0.069474	  0.025770	  0.246509	  0.890952	  4.519764	  0.420215	
1.882	  0.104727	  0.139876	  0.029435	  0.138565	  0.046844	  0.103226	  0.289608	  0.157366	  0.417691	  0.387585	  0.068559	  0.024686	  0.244925	  0.885438	  4.502642	  0.419726	
1.8825	  0.101812	  0.136491	  0.029020	  0.139865	  0.046137	  0.104315	  0.289063	  0.155254	  0.412337	  0.383905	  0.067644	  0.023628	  0.243375	  0.879872	  4.484566	  0.419289	
1.883	  0.098941	  0.133145	  0.028612	  0.141173	  0.045447	  0.105412	  0.288451	  0.153154	  0.406979	  0.380208	  0.066731	  0.022598	  0.241858	  0.874258	  4.465560	  0.418903	
1.8835	  0.096116	  0.129838	  0.028210	  0.142487	  0.044771	  0.106517	  0.287771	  0.151066	  0.401619	  0.376495	  0.065818	  0.021593	  0.240376	  0.868599	  4.445649	  0.418567	
1.884	  0.093336	  0.126571	  0.027815	  0.143806	  0.044112	  0.107629	  0.287024	  0.148989	  0.396259	  0.372767	  0.064907	  0.020615	  0.238928	  0.862898	  4.424859	  0.418278	
1.8845	  0.090601	  0.123344	  0.027426	  0.145129	  0.043468	  0.108747	  0.286211	  0.146924	  0.390901	  0.369025	  0.063997	  0.019663	  0.237516	  0.857161	  4.403218	  0.418036	
1.885	  0.087912	  0.120157	  0.027044	  0.146457	  0.042840	  0.109870	  0.285332	  0.144870	  0.385547	  0.365268	  0.063090	  0.018735	  0.236139	  0.851390	  4.380753	  0.417838	
1.8855	  0.085268	  0.117012	  0.026668	  0.147787	  0.042229	  0.110999	  0.284389	  0.142827	  0.380199	  0.361498	  0.062185	  0.017834	  0.234799	  0.845590	  4.357493	  0.417684	
1.886	  0.082669	  0.113907	  0.026298	  0.149119	  0.041633	  0.112132	  0.283382	  0.140796	  0.374858	  0.357716	  0.061282	  0.016956	  0.233494	  0.839763	  4.333467	  0.417570	
1.8865	  0.080116	  0.110844	  0.025935	  0.150452	  0.041054	  0.113268	  0.282313	  0.138776	  0.369526	  0.353922	  0.060383	  0.016104	  0.232226	  0.833913	  4.308704	  0.417496	
1.887	  0.077607	  0.107823	  0.025579	  0.151785	  0.040491	  0.114406	  0.281183	  0.136767	  0.364205	  0.350117	  0.059486	  0.015275	  0.230995	  0.828043	  4.283233	  0.417459	
1.8875	  0.075143	  0.104844	  0.025229	  0.153118	  0.039945	  0.115547	  0.279995	  0.134769	  0.358896	  0.346303	  0.058593	  0.014470	  0.229801	  0.822156	  4.257082	  0.417459	
1.888	  0.072724	  0.101907	  0.024885	  0.154450	  0.039415	  0.116689	  0.278750	  0.132782	  0.353601	  0.342479	  0.057703	  0.013689	  0.228643	  0.816255	  4.230280	  0.417492	
1.8885	  0.070350	  0.099013	  0.024547	  0.155780	  0.038902	  0.117831	  0.277450	  0.130807	  0.348322	  0.338648	  0.056818	  0.012930	  0.227522	  0.810342	  4.202852	  0.417557	
1.889	  0.068020	  0.096162	  0.024216	  0.157107	  0.038405	  0.118972	  0.276098	  0.128842	  0.343060	  0.334810	  0.055936	  0.012195	  0.226438	  0.804420	  4.174824	  0.417653	
1.8895	  0.065734	  0.093353	  0.023890	  0.158431	  0.037925	  0.120113	  0.274694	  0.126888	  0.337818	  0.330966	  0.055059	  0.011481	  0.225391	  0.798491	  4.146222	  0.417775	
1.89	  0.063493	  0.090588	  0.023571	  0.159751	  0.037463	  0.121252	  0.273243	  0.124945	  0.332596	  0.327116	  0.054187	  0.010790	  0.224380	  0.792557	  4.117070	  0.417924	
1.8905	  0.061295	  0.087865	  0.023258	  0.161066	  0.037017	  0.122388	  0.271745	  0.123014	  0.327398	  0.323262	  0.053319	  0.010120	  0.223406	  0.786622	  4.087393	  0.418095	
